<svg xmlns="http://www.w3.org/2000/svg" width="44" height="44" viewBox="0 0 26 26">
                                                    <path fill="#e1999f" d="M12.25,5.08491407 L12.25,1 C12.25,0.585786438 12.5857864,0.25 13,0.25 C13.4142136,0.25 13.75,0.585786438 13.75,1 L13.75,5.08491407 C15.382395,5.23765981 16.8713902,5.88396373 18.0662499,6.87308998 L20.9550032,3.98433658 C21.2478965,3.69144336 21.7227702,3.69144336 22.0156634,3.98433658 C22.3085566,4.2772298 22.3085566,4.75210353 22.0156634,5.04499675 L19.12691,7.93375015 C20.1160363,9.1286098 20.7623402,10.617605 20.9150859,12.25 L25,12.25 C25.4142136,12.25 25.75,12.5857864 25.75,13 C25.75,13.4142136 25.4142136,13.75 25,13.75 L20.9150859,13.75 C20.7623402,15.382395 20.1160363,16.8713902 19.12691,18.0662499 L22.0156634,20.9550032 C22.3085566,21.2478965 22.3085566,21.7227702 22.0156634,22.0156634 C21.7227702,22.3085566 21.2478965,22.3085566 20.9550032,22.0156634 L18.0662499,19.12691 C16.8713902,20.1160363 15.382395,20.7623402 13.75,20.9150859 L13.75,25 C13.75,25.4142136 13.4142136,25.75 13,25.75 C12.5857864,25.75 12.25,25.4142136 12.25,25 L12.25,20.9150859 C10.617605,20.7623402 9.1286098,20.1160363 7.93375015,19.12691 L5.04499675,22.0156634 C4.75210353,22.3085566 4.2772298,22.3085566 3.98433658,22.0156634 C3.69144336,21.7227702 3.69144336,21.2478965 3.98433658,20.9550032 L6.87308998,18.0662499 C5.88396373,16.8713902 5.23765981,15.382395 5.08491407,13.75 L1,13.75 C0.585786438,13.75 0.25,13.4142136 0.25,13 C0.25,12.5857864 0.585786438,12.25 1,12.25 L5.08491407,12.25 C5.23765981,10.617605 5.88396373,9.1286098 6.87308998,7.93375015 L3.98433658,5.04499675 C3.69144336,4.75210353 3.69144336,4.2772298 3.98433658,3.98433658 C4.2772298,3.69144336 4.75210353,3.69144336 5.04499675,3.98433658 L7.93375015,6.87308998 C9.1286098,5.88396373 10.617605,5.23765981 12.25,5.08491407 L12.25,5.08491407 Z M13,19.45 C16.5622366,19.45 19.45,16.5622366 19.45,13 C19.45,9.43776336 16.5622366,6.55 13,6.55 C9.43776336,6.55 6.55,9.43776336 6.55,13 C6.55,16.5622366 9.43776336,19.45 13,19.45 Z"></path>
                                                </svg>