<svg xmlns="http://www.w3.org/2000/svg" width="44" height="44" viewBox="0 0 26 26">
                                                    <path fill="#e1999f" d="M1.98684211,20.9342105 L1.98684211,2.73684211 C1.98684211,1.45059999 3.02954736,0.407894737 4.31578947,0.407894737 L16.9473684,0.407894737 C18.2336105,0.407894737 19.2763158,1.45059999 19.2763158,2.73684211 L19.2763158,13 C19.2763158,13.4142136 18.9405294,13.75 18.5263158,13.75 C18.1121022,13.75 17.7763158,13.4142136 17.7763158,13 L17.7763158,2.73684211 C17.7763158,2.27902712 17.4051834,1.90789474 16.9473684,1.90789474 L4.31578947,1.90789474 C3.85797448,1.90789474 3.48684211,2.27902712 3.48684211,2.73684211 L3.48684211,20.9342105 L12.2105263,20.9342105 C12.6247399,20.9342105 12.9605263,21.269997 12.9605263,21.6842105 C12.9605263,22.0984241 12.6247399,22.4342105 12.2105263,22.4342105 L1.94736842,22.4342105 C1.92556771,22.4342105 1.90789474,22.4518835 1.90789474,22.4736842 L1.90789474,24.0526316 C1.90789474,24.0744323 1.92556771,24.0921053 1.94736842,24.0921053 L12.2105263,24.0921053 C12.6247399,24.0921053 12.9605263,24.4278917 12.9605263,24.8421053 C12.9605263,25.2563188 12.6247399,25.5921053 12.2105263,25.5921053 L1.94736842,25.5921053 C1.09714058,25.5921053 0.407894737,24.9028594 0.407894737,24.0526316 L0.407894737,22.4736842 C0.407894737,21.6234564 1.09714058,20.9342105 1.94736842,20.9342105 L1.98684211,20.9342105 L1.98684211,20.9342105 Z M17.7763158,16.9078947 L16.1184211,16.9078947 L16.1184211,24.0921053 L24.0921053,24.0921053 L24.0921053,16.9078947 L22.4342105,16.9078947 L22.4342105,20.8947368 C22.4342105,21.3089504 22.0984241,21.6447368 21.6842105,21.6447368 L18.5263158,21.6447368 C18.1121022,21.6447368 17.7763158,21.3089504 17.7763158,20.8947368 L17.7763158,16.9078947 L17.7763158,16.9078947 Z M16.0810526,15.4078947 L24.1294737,15.4078947 C24.9372628,15.4078947 25.5921053,16.0627372 25.5921053,16.8705263 L25.5921053,24.1294737 C25.5921053,24.9372628 24.9372628,25.5921053 24.1294737,25.5921053 L16.0810526,25.5921053 C15.2732635,25.5921053 14.6184211,24.9372628 14.6184211,24.1294737 L14.6184211,16.8705263 C14.6184211,16.0627372 15.2732635,15.4078947 16.0810526,15.4078947 Z M19.2763158,20.1447368 L20.9342105,20.1447368 L20.9342105,16.9078947 L19.2763158,16.9078947 L19.2763158,20.1447368 Z M13.4342105,10.6315789 C13.4342105,9.99951272 13.9464762,9.48709256 14.5789474,9.48684211 C15.2111681,9.48684211 15.7236842,9.99935825 15.7236842,10.6315789 C15.7236842,11.2637996 15.2111681,11.7763158 14.5789474,11.7763158 C13.9467267,11.7763158 13.4342105,11.2637996 13.4342105,10.6315789 Z"></path>
                                                </svg>