<svg xmlns="http://www.w3.org/2000/svg" width="44" height="44" viewBox="0 0 26 26">
                                                    <path fill="#e1999f" d="M4,22.75 L4,12.25 C4,11.8357864 4.33578644,11.5 4.75,11.5 C5.16421356,11.5 5.5,11.8357864 5.5,12.25 L5.5,22.75 C5.5,23.1642136 5.83578644,23.5 6.25,23.5 C6.66421356,23.5 7,23.1642136 7,22.75 L7,7 L2.5,7 L2.5,22.75 C2.5,23.1642136 2.83578644,23.5 3.25,23.5 C3.66421356,23.5 4,23.1642136 4,22.75 Z M20.5,22.75 C20.5,22.3357864 20.8357864,22 21.25,22 C21.6642136,22 22,22.3357864 22,22.75 C22,23.1642136 22.3357864,23.5 22.75,23.5 C23.1642136,23.5 23.5,23.1642136 23.5,22.75 L23.5,7 L19,7 L19,22.75 C19,23.1642136 19.3357864,23.5 19.75,23.5 C20.1642136,23.5 20.5,23.1642136 20.5,22.75 L20.5,12.25 C20.5,11.8357864 20.8357864,11.5 21.25,11.5 C21.6642136,11.5 22,11.8357864 22,12.25 L22,22.75 C22,23.1642136 21.6642136,23.5 21.25,23.5 C20.8357864,23.5 20.5,23.1642136 20.5,22.75 Z M8.37197072,23.5 L17.6280293,23.5 C17.5451157,23.2654158 17.5,23.0129766 17.5,22.75 L17.5,7 L8.5,7 L8.5,22.75 C8.5,23.0129766 8.45488433,23.2654158 8.37197072,23.5 Z M6.25,25 C5.67373417,25 5.14806737,24.7833598 4.75,24.4270799 C4.35193263,24.7833598 3.82626583,25 3.25,25 C2.00735931,25 1,23.9926407 1,22.75 L1,3.25 C1,2.00735931 2.00735931,1 3.25,1 L22.75,1 C23.9926407,1 25,2.00735931 25,3.25 L25,22.75 C25,23.9926407 23.9926407,25 22.75,25 C22.1737342,25 21.6480674,24.7833598 21.25,24.4270799 C20.8519326,24.7833598 20.3262658,25 19.75,25 L6.25,25 Z M2.5,5.5 L23.5,5.5 L23.5,3.25 C23.5,2.83578644 23.1642136,2.5 22.75,2.5 L3.25,2.5 C2.83578644,2.5 2.5,2.83578644 2.5,3.25 L2.5,5.5 Z"></path>
                                                </svg>